<?xml version="1.0" encoding="UTF-8"?>
<svg xmlns="http://www.w3.org/2000/svg" xmlns:xlink="http://www.w3.org/1999/xlink" version="1.1" id="Layer_1" x="0px" y="0px" viewBox="0 0 561 580" style="enable-background:new 0 0 561 580;" xml:space="preserve">
<style type="text/css">
	.st0{fill:#D0043C;}
	.st1{fill:#C09A5D;}
	.st2{fill:#FFFFFF;}
</style>
<g>
	<polygon id="Rood_00000160160445021105304180000004260635697372212107_" class="st0" points="479.2,555 83.3,555 29.4,501.7    29.4,78.6 74.7,36.4 479.2,36.4 534.7,74.1 534.7,512  "></polygon>
	<g id="Stempel_00000101076049833019004530000008210122142206462137_">
		<path class="st1" d="M560.8,167.8c0-8.5-4.4-16-11-20.4c6.6-4.4,11-11.9,11-20.4c0-8.6-4.5-16.2-11.2-20.5    c6.5-4.4,10.7-11.8,10.7-20.2c0-12.5-9.4-22.7-21.4-24.2c0.6-2.1,1-4.2,1-6.5c0-13.5-11-24.5-24.5-24.5c-2.3,0-4.4,0.4-6.5,1    c-1.5-12.1-11.7-21.4-24.2-21.4c-7,0-13.2,2.9-17.7,7.6c-2.9-10.5-12.2-18-23.4-18c-8.5,0-16,4.4-20.4,11    c-4.4-6.6-11.9-11-20.4-11s-16,4.4-20.4,11c-4.4-6.6-11.9-11-20.4-11s-16,4.4-20.4,11c-4.4-6.6-11.9-11-20.4-11s-16,4.4-20.4,11    c-4.4-6.6-11.9-11-20.4-11s-16,4.4-20.4,11c-4.4-6.6-11.9-11-20.4-11s-16,4.4-20.4,11c-4.4-6.6-11.9-11-20.4-11s-16,4.4-20.4,11    c-4.4-6.6-11.9-11-20.4-11s-16,4.4-20.4,11c-4.4-6.6-11.9-11-20.4-11c-11.1,0-20.4,7.4-23.4,17.6c-4.5-4.5-10.6-7.3-17.5-7.3    C63.8,10.6,53.6,20,52.1,32c-2.1-0.6-4.2-1-6.5-1c-13.5,0-24.5,11-24.5,24.5c0,2.3,0.4,4.4,1,6.5C9.6,63.5,0.3,73.7,0.3,86.1    c0,8.5,4.3,15.9,10.9,20.3c-6.6,4.4-11,11.9-11,20.4s4.4,16,11,20.4c-6.6,4.4-11,11.9-11,20.4s4.4,16,11,20.4    c-6.6,4.4-11,11.9-11,20.4s4.4,16,11,20.4c-6.6,4.4-11,11.9-11,20.4c0,8.5,4.4,16,11,20.4c-6.6,4.4-11,11.9-11,20.4    s4.4,16,11,20.4c-6.6,4.4-11,11.9-11,20.4s4.4,16,11,20.4c-6.6,4.4-11,11.9-11,20.4s4.4,16,11,20.4c-6.6,4.4-11,11.9-11,20.4    s4.4,16,11,20.4c-6.6,4.4-11,11.9-11,20.4s4.4,16,11,20.4C4.7,478,0.4,485.4,0.4,493.9c0,12.5,9.3,22.7,21.4,24.2    c-0.6,2.1-1,4.2-1,6.5c0,13.5,11,24.5,24.5,24.5c2.3,0,4.4-0.4,6.5-1c1.5,12,11.7,21.4,24.2,21.4c6.9,0,13.2-2.9,17.7-7.6    c2.9,10.2,12.3,17.8,23.5,17.8c8.5,0,16-4.4,20.4-11c4.4,6.6,11.9,11,20.4,11s16-4.4,20.4-11c4.4,6.6,11.9,11,20.4,11    s16-4.4,20.4-11c4.4,6.6,11.9,11,20.4,11s16-4.4,20.4-11c4.4,6.6,11.9,11,20.4,11s16-4.4,20.4-11c4.4,6.6,11.9,11,20.4,11    s16-4.4,20.4-11c4.4,6.6,11.9,11,20.4,11s16-4.4,20.4-11c4.4,6.6,11.9,11,20.4,11s16-4.4,20.4-11c4.4,6.6,11.9,11,20.4,11    c11.1,0,20.4-7.4,23.4-17.6c4.4,4.5,10.6,7.3,17.5,7.3c12.5,0,22.7-9.4,24.2-21.4c2.1,0.6,4.2,1,6.5,1c13.5,0,24.5-11,24.5-24.5    c0-2.2-0.4-4.4-1-6.5c12.1-1.5,21.4-11.7,21.4-24.2c0-8.4-4.2-15.8-10.7-20.2c6.7-4.4,11.1-11.9,11.1-20.5c0-8.5-4.4-16.1-11-20.4    c6.6-4.4,11-11.9,11-20.4s-4.4-16-11-20.4c6.6-4.4,11-11.9,11-20.4s-4.4-16.1-11-20.4c6.6-4.4,11-11.9,11-20.4s-4.4-16-11-20.4    c6.6-4.4,11-11.9,11-20.4s-4.4-16-11-20.4c6.6-4.4,11-11.9,11-20.4c0-8.5-4.4-16-11-20.4c6.6-4.4,11-11.9,11-20.4s-4.4-16-11-20.4    C556.5,183.8,560.8,176.3,560.8,167.8z M461.4,538.7c-4.4-4.5-10.6-7.3-17.5-7.3c-8.5,0-16.1,4.4-20.4,11    c-4.4-6.6-11.9-11-20.4-11s-16,4.4-20.4,11c-4.4-6.6-11.9-11-20.4-11s-16,4.4-20.4,11c-4.4-6.6-11.9-11-20.4-11s-16,4.4-20.4,11    c-4.4-6.6-11.9-11-20.4-11s-16,4.4-20.4,11c-4.4-6.6-11.9-11-20.4-11s-16,4.4-20.4,11c-4.4-6.6-11.9-11-20.4-11s-16,4.4-20.4,11    c-4.4-6.6-11.9-11-20.4-11s-16,4.4-20.4,11c-4.4-6.6-11.9-11-20.4-11c-6.9,0-13.2,2.9-17.7,7.6c-2.9-10.2-12.3-17.8-23.5-17.8    c-2.2,0-4.4,0.4-6.4,1c-1.4-11-10.1-19.7-21.1-21.1c0.6-2.1,1-4.2,1-6.5c0-8.5-4.4-16-11-20.4c6.5-4.4,10.8-11.8,10.8-20.3    s-4.4-16.1-11-20.4c6.6-4.4,11-11.9,11-20.4s-4.4-16-11-20.4c6.6-4.4,11-11.9,11-20.4s-4.4-16.1-11-20.4c6.6-4.4,11-11.9,11-20.4    s-4.4-16-11-20.4c6.6-4.4,11-11.9,11-20.4s-4.4-16-11-20.4c6.6-4.4,11-11.9,11-20.4c0-8.5-4.4-16-11-20.4c6.6-4.4,11-11.9,11-20.4    s-4.4-16-11-20.4c6.6-4.4,11-11.9,11-20.4s-4.4-16-11-20.4c6.6-4.4,11-11.9,11-20.4s-4.3-16-10.9-20.4c6.6-4.4,11-11.9,11-20.4    c0-2.3-0.4-4.4-1-6.5c11-1.4,19.7-10.1,21.1-21.1c2.1,0.6,4.2,1,6.4,1c11.1,0,20.4-7.4,23.4-17.6c4.4,4.5,10.6,7.3,17.5,7.3    c8.5,0,16-4.4,20.4-11c4.4,6.6,11.9,11,20.4,11s16-4.4,20.4-11c4.4,6.6,11.9,11,20.4,11s16-4.4,20.4-11c4.4,6.6,11.9,11,20.4,11    s16-4.4,20.4-11c4.4,6.6,11.9,11,20.4,11s16-4.4,20.4-11c4.4,6.6,11.9,11,20.4,11s16.1-4.4,20.4-11c4.4,6.6,11.9,11,20.4,11    s16-4.4,20.4-11c4.4,6.6,11.9,11,20.4,11s16.1-4.4,20.4-11c4.4,6.6,11.9,11,20.4,11c6.9,0,13.2-2.9,17.6-7.6    C464,52.4,473.4,60,484.6,60c2.2,0,4.4-0.4,6.5-1c1.4,11,10.1,19.7,21.1,21.1c-0.6,2.1-1,4.2-1,6.5c0,8.6,4.5,16.2,11.2,20.5    c-6.5,4.4-10.7,11.8-10.7,20.3s4.4,16,11,20.4c-6.6,4.4-11,11.9-11,20.4s4.4,16,11,20.4c-6.6,4.4-11,11.9-11,20.4s4.4,16,11,20.4    c-6.6,4.4-11,11.9-11,20.4c0,8.5,4.4,16,11,20.4c-6.6,4.4-11,11.9-11,20.4s4.4,16,11,20.4c-6.6,4.4-11,11.9-11,20.4    s4.4,16,11,20.4c-6.6,4.4-11,11.9-11,20.4s4.4,16,11,20.4c-6.6,4.4-11,11.9-11,20.4s4.4,16,11,20.4c-6.6,4.4-11,11.9-11,20.4    c0,8.4,4.2,15.8,10.7,20.2c-6.7,4.4-11.1,11.9-11.1,20.5c0,2.3,0.4,4.4,1,6.5c-11,1.4-19.7,10.1-21.1,21.1c-2.1-0.6-4.2-1-6.4-1    C473.7,521.1,464.4,528.5,461.4,538.7z"></path>
		<path class="st1" d="M439.6,174.9c2.4-3.3,3.9-7.3,3.9-11.7c0-10.9-8.9-19.8-19.8-19.8c-0.2,0-0.4,0.1-0.7,0.1    c0-0.2,0.1-0.4,0.1-0.7c0-10.9-8.9-19.8-19.8-19.8c-4.4,0-8.5,1.5-11.8,3.9c-2.4-8.2-9.9-14.2-18.9-14.2s-16.4,6-18.9,14.1    c-3.3-2.4-7.3-3.9-11.7-3.9c-6.2,0-11.7,2.9-15.3,7.4c-3.6-4.5-9.1-7.4-15.3-7.4c-6.4,0-12,3.1-15.6,7.7c-0.4-0.5-0.7-1-1.2-1.4    c6.7-4.6,11.1-12.3,11.1-21c0-14.1-11.4-25.5-25.5-25.5s-25.5,11.4-25.5,25.5c0,8.7,4.4,16.4,11.1,21c-0.3,0.3-0.6,0.7-0.9,1.1    c-3.6-4.5-9.1-7.4-15.3-7.4s-11.7,2.9-15.3,7.4c-3.6-4.5-9.1-7.4-15.3-7.4c-4.4,0-8.5,1.5-11.8,3.9c-2.5-8.2-9.9-14.2-18.9-14.2    s-16.4,6-18.9,14.2c-3.3-2.4-7.3-3.9-11.8-3.9c-10.9,0-19.8,8.9-19.8,19.8c0,0.2,0.1,0.4,0.1,0.7c-0.2,0-0.4-0.1-0.7-0.1    c-10.9,0-19.8,8.9-19.8,19.8c0,4.4,1.5,8.5,3.9,11.7c-8.2,2.5-14.1,9.9-14.1,18.9s6,16.4,14.1,18.9c-2.4,3.3-3.9,7.3-3.9,11.7    c0,9,6,16.4,14.1,18.9c-2.4,3.3-3.9,7.3-3.9,11.7c0,10.9,8.9,19.8,19.8,19.8c1.4,0,2.8-0.2,4.1-0.4c-2.2,3.2-3.5,7.1-3.5,11.3    c0,10.9,8.9,19.8,19.8,19.8c1.4,0,2.8-0.2,4.1-0.4c-2.2,3.2-3.5,7.1-3.5,11.3c0,4.3,1.4,8.3,3.8,11.6c0.5,7.9,1.9,18.8,5.8,30.5    c0,0,10.2,40.8,101,40.7h5.2c90.8,0.1,101-40.7,101-40.7c4.9-14.4,5.9-27.6,6-35.5c0.7-2.1,1.2-4.2,1.2-6.5    c0-4.2-1.3-8.1-3.5-11.3c1.3,0.3,2.7,0.4,4.1,0.4c11,0,19.8-8.9,19.8-19.8c0-4.2-1.3-8.1-3.5-11.3c1.3,0.3,2.7,0.5,4.2,0.5    c10.9,0,19.8-8.9,19.8-19.8c0-4.4-1.5-8.5-3.9-11.7c8.2-2.5,14.1-9.9,14.1-18.9c0-4.4-1.5-8.5-3.9-11.7    c8.2-2.5,14.1-9.9,14.1-18.9C453.8,184.8,447.8,177.4,439.6,174.9z M214.4,328.1c-3.4,0-6.3-1.9-7.7-4.7c0.8-2.2,1.3-4.5,1.3-7    c0-10.9-8.9-19.8-19.8-19.8c-1.4,0-2.8,0.2-4.1,0.4c2.2-3.2,3.5-7.1,3.5-11.3c0-10.9-8.9-19.8-19.8-19.8c-1.4,0-2.8,0.2-4.1,0.4    c2.2-3.2,3.5-7.1,3.5-11.3c0-9-6-16.4-14.1-18.9c2.4-3.3,3.9-7.3,3.9-11.7c0-9-6-16.4-14.1-18.9c2.4-3.3,3.9-7.3,3.9-11.7    s-1.5-8.4-3.9-11.7c8.2-2.5,14.1-9.9,14.1-18.9c0-0.2-0.1-0.4-0.1-0.7c0.2,0,0.4,0.1,0.7,0.1c9,0,16.4-6,18.9-14.1    c1.8,1.3,3.9,2.3,6.1,3c-2.4,3.3-3.9,7.3-3.9,11.7s1.5,8.5,3.9,11.7c-8.2,2.5-14.1,9.9-14.1,18.9s6,16.4,14.1,18.9    c-2.4,3.3-3.9,7.3-3.9,11.7c0,10.9,8.9,19.8,19.8,19.8c1.4,0,2.8-0.2,4.1-0.4c-2.2,3.2-3.5,7.1-3.5,11.3c0,9,6,16.4,14.1,18.9    c-2.4,3.3-3.9,7.3-3.9,11.7c0,9,6,16.4,14.1,18.9c-2.4,3.3-3.9,7.3-3.9,11.7c0,3,0.7,5.7,1.8,8.2    C219.8,326.7,217.3,328.1,214.4,328.1z M254,329.6c3.2-3.5,5.2-8.1,5.2-13.3c0-9-6-16.4-14.1-18.9c2.4-3.3,3.9-7.3,3.9-11.7    c0-9-6-16.4-14.1-18.9c2.4-3.3,3.9-7.3,3.9-11.7c0-10.9-8.9-19.8-19.8-19.8c-1.4,0-2.8,0.2-4.1,0.4c2.2-3.2,3.5-7.1,3.5-11.3    c0-9-6-16.4-14.1-18.9c2.4-3.3,3.9-7.3,3.9-11.7s-1.5-8.4-3.9-11.7c8.2-2.5,14.1-9.9,14.1-18.9c0-0.2-0.1-0.4-0.1-0.7    c0.2,0,0.4,0.1,0.7,0.1c6.2,0,11.7-2.9,15.3-7.4c3.6,4.5,9.1,7.4,15.3,7.4c4.2,0,8.1-1.3,11.3-3.5c-0.3,1.3-0.4,2.7-0.4,4.1    c0,6.1,2.8,11.5,7.1,15.1c-4.5,3.7-7.5,9.2-7.5,15.5c0,5.2,2,9.9,5.3,13.5c-4.8,4.2-7.9,10.3-7.9,17.2c0,6.5,2.8,12.4,7.2,16.6    c-3.4,3.7-5.5,8.6-5.5,14.1c0,6.5,3,12.3,7.7,16.1c-3.9,3.6-6.4,8.8-6.4,14.5c0,6.2,2.9,11.7,7.4,15.3c-4.5,3.6-7.4,9.1-7.4,15.3    c0,5.3,2.1,10,5.5,13.6c-1.5,1.4-3.5,2.2-5.7,2.2C257.7,332.1,255.5,331.2,254,329.6z M300.3,332.1c-2.2,0-4.2-0.9-5.8-2.2    c3.3-3.5,5.4-8.3,5.4-13.6c0-6.2-2.9-11.7-7.4-15.3c4.5-3.6,7.4-9.1,7.4-15.3c0-5.8-2.5-10.9-6.4-14.5c4.6-3.9,7.7-9.6,7.7-16.1    c0-5.4-2.1-10.3-5.5-14.1c4.4-4.2,7.2-10,7.2-16.6c0-6.9-3.1-13-7.9-17.2c3.2-3.6,5.3-8.3,5.3-13.5c0-6.3-2.9-11.8-7.5-15.5    c4.3-3.6,7.1-9,7.1-15.1c0-1.6-0.3-3.2-0.6-4.8c3.3,2.6,7.5,4.1,12,4.1c6.2,0,11.7-2.9,15.3-7.4c3.6,4.5,9.1,7.4,15.3,7.4    c0.2,0,0.4-0.1,0.7-0.1c0,0.2-0.1,0.4-0.1,0.7c0,9,6,16.4,14.1,18.9c-2.4,3.3-3.9,7.3-3.9,11.7s1.5,8.5,3.9,11.7    c-8.2,2.5-14.1,9.9-14.1,18.9c0,4.2,1.3,8.1,3.5,11.3c-1.3-0.3-2.7-0.4-4.1-0.4c-11,0-19.8,8.9-19.8,19.8c0,4.4,1.5,8.4,3.9,11.7    c-8.2,2.5-14.2,9.9-14.2,18.9c0,4.4,1.5,8.4,3.9,11.7c-8.2,2.5-14.1,9.9-14.1,18.9c0,5,1.9,9.5,5,13    C305.1,331.1,302.9,332.1,300.3,332.1z M373.3,285.7c0,4.2,1.3,8.1,3.5,11.3c-1.3-0.3-2.7-0.4-4.1-0.4c-11,0-19.8,8.9-19.8,19.8    c0,2.5,0.5,4.9,1.4,7.1c-1.5,2.7-4.3,4.6-7.6,4.6c-2.9,0-5.4-1.4-7-3.6c1.1-2.5,1.8-5.2,1.8-8.1c0-4.4-1.5-8.4-3.9-11.7    c8.2-2.5,14.1-9.9,14.1-18.9c0-4.4-1.5-8.5-3.9-11.7c8.2-2.4,14.2-9.9,14.2-18.9c0-4.2-1.3-8.1-3.5-11.3c1.3,0.3,2.7,0.5,4.2,0.5    c10.9,0,19.8-8.9,19.8-19.8c0-4.4-1.5-8.5-3.9-11.7c8.2-2.5,14.1-9.9,14.1-18.9s-6-16.4-14.1-18.9c2.4-3.3,3.9-7.3,3.9-11.7    s-1.5-8.4-3.9-11.7c2.2-0.7,4.3-1.7,6.1-3c2.5,8.2,9.9,14.2,18.9,14.2c0.2,0,0.4-0.1,0.7-0.1c0,0.2-0.1,0.4-0.1,0.7    c0,9,6,16.4,14.1,18.9c-2.4,3.3-3.9,7.3-3.9,11.7s1.5,8.5,3.9,11.7c-8.2,2.5-14.1,9.9-14.1,18.9c0,4.4,1.5,8.4,3.9,11.7    c-8.2,2.5-14.1,9.9-14.1,18.9c0,4.2,1.3,8.1,3.5,11.3c-1.3-0.3-2.7-0.5-4.2-0.5C382.2,265.9,373.3,274.8,373.3,285.7z"></path>
	</g>
	<g id="Lameco_00000127046384915507248390000013964056980219919797_">
		<path class="st2" d="M104.6,426.2h3.6c0.2,0.2,0.5,0.3,0.8,0.4s0.6,0.2,1,0.2c0.1,0,0.1,0,0.2,0s0.1,0,0.2,0s0.1,0,0.1,0h0.1    c0.1,0,0.1,0,0.2,0c0.3-0.1,0.6-0.1,0.8-0.2c0.3-0.1,0.5-0.2,0.7-0.2l3.6-0.1v56.6c0.4,0.1,0.9,0.2,1.3,0.3c0.5,0.1,1,0.1,1.5,0.1    c0.5,0.1,0.9,0.1,1.4,0.1s1,0,1.5,0c0.3,0,0.6,0,0.8,0s0.5,0,0.7-0.1c0.2,0,0.5,0,0.8,0s0.5,0,0.8,0c1.2-0.1,2.3-0.1,3.5-0.2    c1.1-0.1,2.3-0.1,3.4-0.2c1.1-0.1,2-0.2,2.9-0.3c0.9-0.1,1.7-0.2,2.4-0.2l3.6-0.1c-0.1,0.2-0.1,0.4-0.2,0.6    c-0.1,0.2-0.1,0.4-0.1,0.5c-0.1,0.2-0.1,0.4-0.1,0.5c0,0.2,0,0.3,0,0.4c0,0.2,0,0.4,0,0.5c0,0.2,0,0.3,0,0.4c0,0.2,0,0.3,0,0.5    s0.1,0.3,0.1,0.4s0,0.1,0,0.2s0,0.2,0.1,0.3c0,0.1,0,0.1,0,0.2s0,0.2,0,0.2l0.1,0.5h-3.6h-32.2V426.2z"></path>
		<path class="st2" d="M156.7,474.3c0.4-1.2,1-2.3,1.9-3.3c0.8-1,2-1.9,3.4-2.7c1.5-0.8,3.2-1.5,5.3-2l11.2-2.3    c0.7-0.1,1.2-0.2,1.7-0.5s0.9-0.6,1.2-1c0.3-0.5,0.5-1,0.7-1.5c0.1-0.5,0.2-1.1,0.2-1.7c0-0.1,0-0.2,0-0.3c0-0.1,0-0.2,0-0.3    c-0.1-0.1-0.1-0.2-0.1-0.3c0-0.1,0-0.2,0-0.4c-0.1-0.2-0.1-0.5-0.1-0.7s-0.1-0.5-0.2-0.7c-0.3-0.9-0.7-1.9-1.3-2.7    c-0.6-0.9-1.3-1.7-2.1-2.5c-0.7-0.7-1.4-1.2-2.2-1.6s-1.7-0.7-2.6-0.8c-0.4,0.1-0.8,0.1-1.2,0.3c-0.4,0.1-0.7,0.2-1.1,0.4    c-0.5,0.2-1.1,0.5-1.6,0.8s-1.1,0.7-1.6,1.1c-0.3,0.2-0.6,0.5-0.9,0.8c-0.3,0.3-0.6,0.6-0.9,0.9c-0.3,0.3-0.6,0.6-0.9,1    c-0.3,0.4-0.6,0.7-0.9,1.1l-3.6-0.1l-1.3-0.1v-4.9c0.1,0,0.3,0,0.4-0.1c0.2-0.1,0.4-0.2,0.5-0.2c0.2-0.1,0.4-0.2,0.5-0.4    c0.2-0.1,0.4-0.2,0.5-0.4c0.8-0.5,1.7-0.9,2.6-1.3c0.9-0.4,1.9-0.8,3-1.2c1.1-0.4,2.2-0.6,3.3-0.8c1.2-0.2,2.4-0.3,3.7-0.3    l3.6-0.1c2.6,0.1,4.9,0.4,6.8,0.9c2,0.6,3.6,1.4,4.8,2.5s2.2,2.6,2.8,4.5s0.9,4.1,0.9,6.8v22c0,0.6,0,1.1,0.1,1.4s0.3,0.6,0.5,0.8    c0.1,0,0.1,0,0.1,0h0.1c0,0.1,0,0.1,0,0.1h0.1c0,0,0.1,0,0.2-0.1h0.1l3.6-0.1v2c-0.3,0.4-0.6,0.6-0.9,0.8c-0.3,0.2-0.7,0.4-1,0.5    c-0.2,0.1-0.4,0.1-0.5,0.1c-0.2,0-0.4,0-0.5,0.1c-0.2,0.1-0.4,0.1-0.6,0.1c-0.2,0-0.4,0-0.5,0l-0.4,0.1h-3.6h-0.4    c-0.9,0-1.8-0.1-2.6-0.3c-0.8-0.2-1.6-0.5-2.3-0.9c-0.4-0.2-0.7-0.5-1-0.8s-0.6-0.5-0.8-0.8c-0.9,0.7-1.8,1.2-2.6,1.7    c-0.9,0.5-1.7,0.8-2.5,1.1c-1,0.4-2,0.6-3,0.8c-1,0.2-1.9,0.3-2.8,0.3h-3.6c-1.8,0-3.4-0.3-4.8-0.8c-1.5-0.5-2.8-1.3-4-2.3    c-1.1-1.1-2-2.3-2.6-3.6c-0.6-1.3-0.9-2.8-0.9-4.3v-0.2C156,476.8,156.3,475.5,156.7,474.3z M182,467.3c-2.4,0.4-4.4,0.9-6.2,1.3    c-1.7,0.5-3.2,1-4.4,1.7c-1.4,0.8-2.5,1.7-3.2,2.8c-0.7,1.1-1.1,2.5-1.1,4c0,0.2,0,0.5,0,0.7s0,0.4,0.1,0.6c0,0.2,0,0.4,0,0.6    s0.1,0.4,0.1,0.7l0.1,0.5l0.3,0.4c0.3,0.6,0.7,1.1,1.1,1.6c0.4,0.5,1,0.9,1.7,1.4c0.5,0.3,1,0.5,1.5,0.7s1.1,0.3,1.6,0.4    c0.1,0,0.2,0,0.3,0s0.1,0,0.3-0.1c0.1,0,0.1,0,0.2,0c0.1,0,0.2,0,0.2,0c0.5-0.1,0.9-0.3,1.4-0.5s0.9-0.5,1.4-0.8    c0.4-0.2,0.7-0.5,1.1-0.8c0.4-0.3,0.8-0.6,1.2-1c0.2-0.2,0.4-0.4,0.5-0.5c0.2-0.2,0.4-0.4,0.6-0.6c0.2-0.2,0.4-0.5,0.5-0.7    c0.2-0.2,0.4-0.5,0.5-0.7v-0.2v-11.5H182z"></path>
		<path class="st2" d="M212.5,444.5h3.6l0.5,0.3l0.5,0.1c0.1,0.1,0.1,0.1,0.1,0.1h0.1c0.1,0.1,0.1,0.1,0.2,0.1    c0.3-0.1,0.6-0.1,0.9-0.2c0.3-0.1,0.7-0.2,1-0.2l3.6-0.1v2.9c0.4-0.2,0.7-0.5,1.1-0.8c0.4-0.3,0.7-0.5,1.2-0.8    c1-0.7,2.1-1.2,3.2-1.5c1.1-0.4,2.3-0.5,3.6-0.5l3.6-0.1c1.5,0.1,2.9,0.2,4.1,0.4c1.2,0.2,2.2,0.4,3.1,0.7    c0.9,0.3,1.7,0.8,2.6,1.5c0.8,0.7,1.6,1.5,2.4,2.5c0.1,0.2,0.2,0.4,0.4,0.5c0.1,0.2,0.2,0.4,0.4,0.5c0.6-0.8,1.2-1.6,1.9-2.2    c0.7-0.7,1.4-1.2,2.3-1.6c1.3-0.7,2.6-1.3,4-1.6c1.3-0.4,2.7-0.6,4.1-0.6l3.6-0.1c2.3,0.1,4.3,0.4,6,1.1s3.3,1.7,4.6,3    c1.3,1.3,2.3,2.7,3,4.1s1.1,3,1.2,4.6v0.3v0.4v0.4v0.3l-0.1,0.3v0.3v29.3h-3.6c-0.1,0-0.3,0-0.4,0s-0.3,0-0.4-0.1    c-0.2,0-0.3,0-0.5,0c-0.1,0-0.3,0-0.4,0h-0.1h-0.1c-0.1,0-0.1,0-0.2,0c-0.4,0.1-0.7,0.1-1.1,0.1s-0.7,0-1.1,0h-3.6v-28.7    c0-1.5-0.3-2.8-0.8-4.1c-0.5-1.2-1.3-2.3-2.3-3.3c-0.8-0.7-1.6-1.2-2.4-1.6s-1.7-0.8-2.7-0.9c-0.9,0.2-1.8,0.5-2.6,0.9    c-0.9,0.4-1.7,1.1-2.4,1.8c-1,0.9-1.8,2.2-2.4,3.6c-0.6,1.5-0.9,3.2-1.1,5.2v27.1h-3.6c-0.1,0-0.3,0-0.4,0c-0.1,0-0.3,0-0.4-0.1    c-0.2,0-0.3,0-0.5,0c-0.1,0-0.3,0-0.4,0h-0.1c0.1,0,0.1,0,0,0c-0.3,0.1-0.6,0.1-0.8,0.1c-0.3,0-0.5,0-0.8,0h-3.6v-28.7    c0-1.4-0.3-2.7-0.8-3.9c-0.5-1.2-1.3-2.2-2.4-3.1c-0.8-0.7-1.7-1.3-2.6-1.7c-0.9-0.4-1.8-0.8-2.8-0.9c-0.8,0.2-1.7,0.5-2.5,0.9    s-1.6,1-2.4,1.6c-1,0.9-1.8,2.1-2.3,3.5c-0.5,1.5-0.8,3.2-0.9,5.3V488h-3.6c-0.1,0-0.3,0-0.4,0c-0.1,0-0.3,0-0.4-0.1    c-0.2,0-0.3,0-0.5,0c-0.1,0-0.3,0-0.4,0h-0.1h-0.1c-0.1,0-0.1,0-0.2,0c-0.4,0.1-0.7,0.1-1.1,0.1c-0.4,0-0.7,0-1.1,0h-3.6v-43.5    H212.5z"></path>
		<path class="st2" d="M295.6,457.6c1-2.9,2.5-5.3,4.5-7.2c2-1.9,4.2-3.3,6.6-4.3s5-1.5,7.8-1.5l3.6-0.1c2.5,0.1,4.7,0.4,6.7,1    s3.6,1.5,4.9,2.7c1.4,1.2,2.5,2.5,3.5,3.9c1,1.3,1.7,2.7,2.2,4.2c0.2,0.6,0.4,1.2,0.5,1.8c0.2,0.6,0.3,1.3,0.4,1.9    s0.2,1.2,0.3,1.7c0.1,0.6,0.1,1.1,0.1,1.6c0,0.2,0,0.3,0,0.4s0,0.3,0,0.4c-0.1,0.1-0.1,0.2-0.1,0.4c0,0.1,0,0.2,0,0.4    c0,0.2,0,0.5,0,0.7s-0.1,0.4-0.1,0.6l-3.5-0.1l-26.6-0.1c0,2.7,0.3,5.2,0.8,7.3c0.5,2.1,1.3,4,2.4,5.6c1,1.4,2.3,2.5,4,3.3    s3.8,1.3,6.1,1.4c0.9-0.1,1.9-0.2,2.8-0.4c0.9-0.2,1.8-0.6,2.7-1c1.2-0.5,2.2-1.1,3.2-1.7c0.9-0.7,1.7-1.5,2.4-2.4l3.6-0.1    l0.7,4.8l-0.2,0.3l-0.2,0.1l-0.5,0.4l-0.5,0.4c-0.9,0.7-1.9,1.2-2.9,1.8c-1,0.5-2,1-3.1,1.5c-1.1,0.4-2.3,0.7-3.8,0.9    c-1.4,0.2-3.1,0.4-4.9,0.4h-3.6c-3.7-0.2-6.8-0.8-9.5-1.9c-2.6-1.1-4.8-2.7-6.4-4.8c-1.6-2.1-2.8-4.3-3.7-6.7    c-0.9-2.4-1.4-4.9-1.6-7.5v-0.2C294.1,463.8,294.6,460.4,295.6,457.6z M317.9,427.7c0.2-0.2,0.5-0.4,0.7-0.5    c0.2-0.2,0.5-0.4,0.7-0.5c0.3-0.2,0.6-0.3,0.8-0.4c0.3-0.1,0.5-0.2,0.8-0.3c0.1-0.1,0.2-0.1,0.4-0.1c0.1,0,0.2,0,0.4,0    c0.1,0,0.1,0,0.2,0s0.2,0,0.3-0.1c0.1,0,0.1,0,0.2,0s0.1,0,0.2,0l3.6-0.1c0.5,0.1,0.9,0.1,1.3,0.3c0.4,0.1,0.8,0.3,1.1,0.5    c0.4,0.2,0.6,0.5,0.8,0.8c0.2,0.3,0.3,0.6,0.3,1c0,0.2,0,0.5-0.1,0.8s-0.3,0.7-0.5,1c-0.1,0.2-0.3,0.4-0.4,0.5    c-0.2,0.2-0.4,0.3-0.5,0.4c-0.2,0.2-0.5,0.4-0.7,0.5c-0.2,0.2-0.5,0.4-0.8,0.5l-13.2,8.3h-3.6h-3.6L317.9,427.7z M325.7,462.4    c0-0.1,0-0.3,0-0.5c0-0.1,0-0.1,0-0.2s0-0.1,0-0.3c-0.1-0.1-0.1-0.1-0.1-0.2s0-0.2,0-0.2c-0.1-1.6-0.3-3.2-0.8-4.7    c-0.4-1.5-1.1-2.9-1.8-4.2c-0.7-1.1-1.5-2-2.7-2.7c-1.1-0.6-2.5-1.1-4-1.3c-1.1,0.2-2.2,0.5-3.2,1.1s-1.9,1.3-2.7,2.2    c-1,1.1-1.8,2.3-2.4,3.5c-0.7,1.2-1.1,2.5-1.4,3.9c-0.1,0.4-0.1,0.7-0.2,1.1c-0.1,0.3-0.2,0.7-0.2,1c-0.1,0.4-0.1,0.7-0.1,1    s0,0.6,0,0.9l19.6-0.2C325.7,462.6,325.7,462.5,325.7,462.4z"></path>
		<path class="st2" d="M351.3,458.6c1-2.7,2.5-5.1,4.4-7.1c2-2.1,4.4-3.6,7.4-4.7c3-1,6.5-1.6,10.5-1.6l3.6-0.1    c1.1,0.1,2.1,0.1,3,0.2s1.8,0.2,2.5,0.4c0.7,0.2,1.4,0.4,2.1,0.5c0.7,0.2,1.4,0.4,2.1,0.7c0.1,0.1,0.3,0.1,0.4,0.2    s0.3,0.1,0.5,0.2c0.1,0.1,0.3,0.2,0.4,0.3c0.1,0.1,0.3,0.1,0.4,0.2c0.3,0.2,0.6,0.3,0.9,0.5c0.3,0.1,0.6,0.3,1,0.4l-1.4,6.1h-3.6    h-1.4c-0.7-0.9-1.5-1.8-2.3-2.6c-0.8-0.8-1.7-1.4-2.6-2c-0.8-0.4-1.6-0.8-2.4-1c-0.8-0.3-1.7-0.4-2.8-0.5    c-1.8,0.2-3.5,0.8-4.9,1.7c-1.5,0.9-2.7,2.2-3.8,3.9c-1.2,1.8-2.1,3.8-2.7,5.9s-0.9,4.3-0.9,6.5c0,2.3,0.3,4.5,0.9,6.6    s1.6,4.1,2.8,6c1.1,1.7,2.5,3,4.1,3.9s3.5,1.5,5.7,1.7c1-0.1,1.8-0.3,2.7-0.4c0.8-0.2,1.6-0.4,2.3-0.8c1-0.5,1.9-1,2.8-1.7    s1.8-1.4,2.7-2.1l0.2-0.4l0.3-0.2h3.5l0.7,0.5l-0.7,4.3c-0.9,0.8-2,1.5-3.1,2.1s-2.3,1-3.5,1.3s-2.5,0.6-3.7,0.8    c-1.2,0.2-2.5,0.3-3.7,0.3h-3.6h-0.3h-0.3c-2.7-0.1-5.3-0.5-7.9-1.4c-2.5-0.9-4.9-2.2-7.2-3.9c-2.3-1.7-4-3.8-5.2-6.4    c-1.1-2.5-1.7-5.4-1.7-8.7v-0.3v-0.3v-0.2v-0.3V467C349.8,464.3,350.3,461.3,351.3,458.6z"></path>
		<path class="st2" d="M405.1,458.9c1-2.8,2.6-5.4,4.7-7.6c2.1-2.3,4.5-3.9,7.3-5s6-1.6,9.5-1.6l3.5-0.1c2.6,0.1,4.9,0.4,7,1.1    c2,0.6,3.8,1.6,5.3,2.8c1.4,1.2,2.7,2.5,3.7,3.9c1.1,1.4,2,2.8,2.7,4.4c0.5,1,0.9,2,1.1,3c0.3,1,0.5,1.9,0.7,2.9    c0.2,0.9,0.3,1.8,0.4,2.5s0.1,1.4,0.1,1.9s0,1.1,0,1.6c0,0.6-0.1,1.1-0.2,1.7s-0.2,1.2-0.3,1.7c-0.1,0.6-0.3,1.1-0.5,1.7    c-0.6,1.8-1.5,3.6-2.6,5.3c-1.1,1.7-2.5,3.3-4.2,4.9c-1.7,1.5-3.7,2.6-6,3.3c-2.3,0.7-5,1.1-8,1.1h-3.6c-0.1,0-0.2,0-0.4,0    s-0.2,0-0.4,0c-0.1,0-0.1,0-0.3,0c-0.1,0-0.1,0-0.2,0s-0.1,0-0.2,0c-3.3,0-6.3-0.5-8.8-1.4c-2.6-1-4.8-2.4-6.6-4.4    c-1.8-2-3.2-4.1-4.1-6.5s-1.4-5-1.4-7.8v-0.2C403.5,464.9,404.1,461.7,405.1,458.9z M415.5,470.5c0.1,0.6,0.1,1.2,0.2,2    c0.1,0.7,0.3,1.4,0.4,2.2c0.2,0.7,0.4,1.5,0.8,2.4c0.4,1.1,1,2.1,1.6,3.1c0.7,1,1.5,1.9,2.4,2.8c0.8,0.8,1.7,1.4,2.7,1.8    s2.2,0.8,3.5,0.9c1.5-0.2,2.9-0.7,4.2-1.5c1.2-0.7,2.4-1.8,3.5-3.1c1.2-1.5,2.2-3.5,3-5.9c0.7-2.4,1.2-5.1,1.4-8.3    c0-2.8-0.3-5.3-0.8-7.6c-0.5-2.3-1.3-4.3-2.4-6.1c-1-1.5-2.1-2.7-3.5-3.6c-1.4-0.8-3-1.4-4.8-1.6c-1.8,0.2-3.4,0.8-4.8,1.7    c-1.4,0.9-2.6,2.2-3.6,3.8c-1.2,1.8-2.1,3.8-2.8,5.8c-0.6,2-1,4.2-1.2,6.4c0,0.1,0,0.2,0,0.4c0,0.1,0,0.2,0,0.4v0.4    c0,0.1,0,0.2,0,0.3c0,0.1,0,0.2,0,0.2c0,0.1,0,0.2,0,0.3c0,0.1,0,0.1,0,0.3c0,0.2,0,0.3,0,0.5s0,0.3,0.1,0.4l-3.6-0.1v-0.1h3.6    C415.5,469.4,415.5,469.9,415.5,470.5z"></path>
	</g>
</g>
</svg>
